<?xml version="1.0" encoding="utf-8" standalone="no"?>
<!DOCTYPE svg PUBLIC "-//W3C//DTD SVG 1.1//EN"
  "http://www.w3.org/Graphics/SVG/1.1/DTD/svg11.dtd">
<svg xmlns:xlink="http://www.w3.org/1999/xlink" width="432pt" height="432pt" viewBox="0 0 432 432" xmlns="http://www.w3.org/2000/svg" version="1.1">
 <metadata>
  <rdf:RDF xmlns:dc="http://purl.org/dc/elements/1.1/" xmlns:cc="http://creativecommons.org/ns#" xmlns:rdf="http://www.w3.org/1999/02/22-rdf-syntax-ns#">
   <cc:Work>
    <dc:type rdf:resource="http://purl.org/dc/dcmitype/StillImage"/>
    <dc:date>2026-03-19T00:31:09.325515</dc:date>
    <dc:format>image/svg+xml</dc:format>
    <dc:creator>
     <cc:Agent>
      <dc:title>Matplotlib v3.10.3, https://matplotlib.org/</dc:title>
     </cc:Agent>
    </dc:creator>
   </cc:Work>
  </rdf:RDF>
 </metadata>
 <defs>
  <style type="text/css">*{stroke-linejoin: round; stroke-linecap: butt}</style>
 </defs>
 <g id="figure_1">
  <g id="patch_1">
   <path d="M 0 432 
L 432 432 
L 432 0 
L 0 0 
L 0 432 
z
" style="fill: none"/>
  </g>
  <g id="axes_1">
   <g id="patch_2">
    <path d="M -5.4 383.4054 
L 5.4 383.4054 
L 5.4 372.6054 
L -5.4 372.6054 
z
" clip-path="url(#p29369a5228)" style="fill: #8dd3c7; opacity: 0.7; stroke: #000000; stroke-width: 0.8; stroke-linejoin: miter"/>
   </g>
   <g id="patch_3">
    <path d="M -5.4 329.4054 
L 5.4 329.4054 
L 5.4 318.6054 
L -5.4 318.6054 
z
" clip-path="url(#p29369a5228)" style="fill: #8dd3c7; opacity: 0.7; stroke: #000000; stroke-width: 0.8; stroke-linejoin: miter"/>
   </g>
   <g id="patch_4">
    <path d="M -5.4 275.4054 
L 5.4 275.4054 
L 5.4 264.6054 
L -5.4 264.6054 
z
" clip-path="url(#p29369a5228)" style="fill: #8dd3c7; opacity: 0.7; stroke: #000000; stroke-width: 0.8; stroke-linejoin: miter"/>
   </g>
   <g id="patch_5">
    <path d="M -5.4 221.4054 
L 5.4 221.4054 
L 5.4 210.6054 
L -5.4 210.6054 
z
" clip-path="url(#p29369a5228)" style="fill: #8dd3c7; opacity: 0.7; stroke: #000000; stroke-width: 0.8; stroke-linejoin: miter"/>
   </g>
   <g id="patch_6">
    <path d="M -5.4 167.4054 
L 5.4 167.4054 
L 5.4 156.6054 
L -5.4 156.6054 
z
" clip-path="url(#p29369a5228)" style="fill: #8dd3c7; opacity: 0.7; stroke: #000000; stroke-width: 0.8; stroke-linejoin: miter"/>
   </g>
   <g id="patch_7">
    <path d="M -5.4 113.4054 
L 5.4 113.4054 
L 5.4 102.6054 
L -5.4 102.6054 
z
" clip-path="url(#p29369a5228)" style="fill: #8dd3c7; opacity: 0.7; stroke: #000000; stroke-width: 0.8; stroke-linejoin: miter"/>
   </g>
   <g id="patch_8">
    <path d="M -5.4 59.4054 
L 5.4 59.4054 
L 5.4 48.6054 
L -5.4 48.6054 
z
" clip-path="url(#p29369a5228)" style="fill: #8dd3c7; opacity: 0.7; stroke: #000000; stroke-width: 0.8; stroke-linejoin: miter"/>
   </g>
   <g id="patch_9">
    <path d="M -5.4 5.4054 
L 5.4 5.4054 
L 5.4 -5.3946 
L -5.4 -5.3946 
z
" clip-path="url(#p29369a5228)" style="fill: #8dd3c7; opacity: 0.7; stroke: #000000; stroke-width: 0.8; stroke-linejoin: miter"/>
   </g>
   <g id="patch_10">
    <path d="M 48.6 383.4054 
L 59.4 383.4054 
L 59.4 372.6054 
L 48.6 372.6054 
z
" clip-path="url(#p29369a5228)" style="fill: #8dd3c7; opacity: 0.7; stroke: #000000; stroke-width: 0.8; stroke-linejoin: miter"/>
   </g>
   <g id="patch_11">
    <path d="M 48.6 329.4054 
L 59.4 329.4054 
L 59.4 318.6054 
L 48.6 318.6054 
z
" clip-path="url(#p29369a5228)" style="fill: #8dd3c7; opacity: 0.7; stroke: #000000; stroke-width: 0.8; stroke-linejoin: miter"/>
   </g>
   <g id="patch_12">
    <path d="M 48.6 275.4054 
L 59.4 275.4054 
L 59.4 264.6054 
L 48.6 264.6054 
z
" clip-path="url(#p29369a5228)" style="fill: #8dd3c7; opacity: 0.7; stroke: #000000; stroke-width: 0.8; stroke-linejoin: miter"/>
   </g>
   <g id="patch_13">
    <path d="M 48.6 221.4054 
L 59.4 221.4054 
L 59.4 210.6054 
L 48.6 210.6054 
z
" clip-path="url(#p29369a5228)" style="fill: #8dd3c7; opacity: 0.7; stroke: #000000; stroke-width: 0.8; stroke-linejoin: miter"/>
   </g>
   <g id="patch_14">
    <path d="M 48.6 167.4054 
L 59.4 167.4054 
L 59.4 156.6054 
L 48.6 156.6054 
z
" clip-path="url(#p29369a5228)" style="fill: #8dd3c7; opacity: 0.7; stroke: #000000; stroke-width: 0.8; stroke-linejoin: miter"/>
   </g>
   <g id="patch_15">
    <path d="M 48.6 113.4054 
L 59.4 113.4054 
L 59.4 102.6054 
L 48.6 102.6054 
z
" clip-path="url(#p29369a5228)" style="fill: #8dd3c7; opacity: 0.7; stroke: #000000; stroke-width: 0.8; stroke-linejoin: miter"/>
   </g>
   <g id="patch_16">
    <path d="M 48.6 59.4054 
L 59.4 59.4054 
L 59.4 48.6054 
L 48.6 48.6054 
z
" clip-path="url(#p29369a5228)" style="fill: #8dd3c7; opacity: 0.7; stroke: #000000; stroke-width: 0.8; stroke-linejoin: miter"/>
   </g>
   <g id="patch_17">
    <path d="M 48.6 5.4054 
L 59.4 5.4054 
L 59.4 -5.3946 
L 48.6 -5.3946 
z
" clip-path="url(#p29369a5228)" style="fill: #8dd3c7; opacity: 0.7; stroke: #000000; stroke-width: 0.8; stroke-linejoin: miter"/>
   </g>
   <g id="patch_18">
    <path d="M 102.6 383.4054 
L 113.4 383.4054 
L 113.4 372.6054 
L 102.6 372.6054 
z
" clip-path="url(#p29369a5228)" style="fill: #8dd3c7; opacity: 0.7; stroke: #000000; stroke-width: 0.8; stroke-linejoin: miter"/>
   </g>
   <g id="patch_19">
    <path d="M 102.6 329.4054 
L 113.4 329.4054 
L 113.4 318.6054 
L 102.6 318.6054 
z
" clip-path="url(#p29369a5228)" style="fill: #8dd3c7; opacity: 0.7; stroke: #000000; stroke-width: 0.8; stroke-linejoin: miter"/>
   </g>
   <g id="patch_20">
    <path d="M 102.6 275.4054 
L 113.4 275.4054 
L 113.4 264.6054 
L 102.6 264.6054 
z
" clip-path="url(#p29369a5228)" style="fill: #8dd3c7; opacity: 0.7; stroke: #000000; stroke-width: 0.8; stroke-linejoin: miter"/>
   </g>
   <g id="patch_21">
    <path d="M 102.6 221.4054 
L 113.4 221.4054 
L 113.4 210.6054 
L 102.6 210.6054 
z
" clip-path="url(#p29369a5228)" style="fill: #8dd3c7; opacity: 0.7; stroke: #000000; stroke-width: 0.8; stroke-linejoin: miter"/>
   </g>
   <g id="patch_22">
    <path d="M 102.6 167.4054 
L 113.4 167.4054 
L 113.4 156.6054 
L 102.6 156.6054 
z
" clip-path="url(#p29369a5228)" style="fill: #8dd3c7; opacity: 0.7; stroke: #000000; stroke-width: 0.8; stroke-linejoin: miter"/>
   </g>
   <g id="patch_23">
    <path d="M 102.6 113.4054 
L 113.4 113.4054 
L 113.4 102.6054 
L 102.6 102.6054 
z
" clip-path="url(#p29369a5228)" style="fill: #8dd3c7; opacity: 0.7; stroke: #000000; stroke-width: 0.8; stroke-linejoin: miter"/>
   </g>
   <g id="patch_24">
    <path d="M 102.6 59.4054 
L 113.4 59.4054 
L 113.4 48.6054 
L 102.6 48.6054 
z
" clip-path="url(#p29369a5228)" style="fill: #8dd3c7; opacity: 0.7; stroke: #000000; stroke-width: 0.8; stroke-linejoin: miter"/>
   </g>
   <g id="patch_25">
    <path d="M 102.6 5.4054 
L 113.4 5.4054 
L 113.4 -5.3946 
L 102.6 -5.3946 
z
" clip-path="url(#p29369a5228)" style="fill: #8dd3c7; opacity: 0.7; stroke: #000000; stroke-width: 0.8; stroke-linejoin: miter"/>
   </g>
   <g id="patch_26">
    <path d="M 156.6 383.4054 
L 167.4 383.4054 
L 167.4 372.6054 
L 156.6 372.6054 
z
" clip-path="url(#p29369a5228)" style="fill: #8dd3c7; opacity: 0.7; stroke: #000000; stroke-width: 0.8; stroke-linejoin: miter"/>
   </g>
   <g id="patch_27">
    <path d="M 156.6 329.4054 
L 167.4 329.4054 
L 167.4 318.6054 
L 156.6 318.6054 
z
" clip-path="url(#p29369a5228)" style="fill: #8dd3c7; opacity: 0.7; stroke: #000000; stroke-width: 0.8; stroke-linejoin: miter"/>
   </g>
   <g id="patch_28">
    <path d="M 156.6 275.4054 
L 167.4 275.4054 
L 167.4 264.6054 
L 156.6 264.6054 
z
" clip-path="url(#p29369a5228)" style="fill: #8dd3c7; opacity: 0.7; stroke: #000000; stroke-width: 0.8; stroke-linejoin: miter"/>
   </g>
   <g id="patch_29">
    <path d="M 156.6 221.4054 
L 167.4 221.4054 
L 167.4 210.6054 
L 156.6 210.6054 
z
" clip-path="url(#p29369a5228)" style="fill: #8dd3c7; opacity: 0.7; stroke: #000000; stroke-width: 0.8; stroke-linejoin: miter"/>
   </g>
   <g id="patch_30">
    <path d="M 156.6 167.4054 
L 167.4 167.4054 
L 167.4 156.6054 
L 156.6 156.6054 
z
" clip-path="url(#p29369a5228)" style="fill: #8dd3c7; opacity: 0.7; stroke: #000000; stroke-width: 0.8; stroke-linejoin: miter"/>
   </g>
   <g id="patch_31">
    <path d="M 156.6 113.4054 
L 167.4 113.4054 
L 167.4 102.6054 
L 156.6 102.6054 
z
" clip-path="url(#p29369a5228)" style="fill: #8dd3c7; opacity: 0.7; stroke: #000000; stroke-width: 0.8; stroke-linejoin: miter"/>
   </g>
   <g id="patch_32">
    <path d="M 156.6 59.4054 
L 167.4 59.4054 
L 167.4 48.6054 
L 156.6 48.6054 
z
" clip-path="url(#p29369a5228)" style="fill: #8dd3c7; opacity: 0.7; stroke: #000000; stroke-width: 0.8; stroke-linejoin: miter"/>
   </g>
   <g id="patch_33">
    <path d="M 156.6 5.4054 
L 167.4 5.4054 
L 167.4 -5.3946 
L 156.6 -5.3946 
z
" clip-path="url(#p29369a5228)" style="fill: #8dd3c7; opacity: 0.7; stroke: #000000; stroke-width: 0.8; stroke-linejoin: miter"/>
   </g>
   <g id="patch_34">
    <path d="M 210.6 383.4054 
L 221.4 383.4054 
L 221.4 372.6054 
L 210.6 372.6054 
z
" clip-path="url(#p29369a5228)" style="fill: #8dd3c7; opacity: 0.7; stroke: #000000; stroke-width: 0.8; stroke-linejoin: miter"/>
   </g>
   <g id="patch_35">
    <path d="M 210.6 329.4054 
L 221.4 329.4054 
L 221.4 318.6054 
L 210.6 318.6054 
z
" clip-path="url(#p29369a5228)" style="fill: #8dd3c7; opacity: 0.7; stroke: #000000; stroke-width: 0.8; stroke-linejoin: miter"/>
   </g>
   <g id="patch_36">
    <path d="M 210.6 275.4054 
L 221.4 275.4054 
L 221.4 264.6054 
L 210.6 264.6054 
z
" clip-path="url(#p29369a5228)" style="fill: #8dd3c7; opacity: 0.7; stroke: #000000; stroke-width: 0.8; stroke-linejoin: miter"/>
   </g>
   <g id="patch_37">
    <path d="M 210.6 221.4054 
L 221.4 221.4054 
L 221.4 210.6054 
L 210.6 210.6054 
z
" clip-path="url(#p29369a5228)" style="fill: #8dd3c7; opacity: 0.7; stroke: #000000; stroke-width: 0.8; stroke-linejoin: miter"/>
   </g>
   <g id="patch_38">
    <path d="M 210.6 167.4054 
L 221.4 167.4054 
L 221.4 156.6054 
L 210.6 156.6054 
z
" clip-path="url(#p29369a5228)" style="fill: #8dd3c7; opacity: 0.7; stroke: #000000; stroke-width: 0.8; stroke-linejoin: miter"/>
   </g>
   <g id="patch_39">
    <path d="M 210.6 113.4054 
L 221.4 113.4054 
L 221.4 102.6054 
L 210.6 102.6054 
z
" clip-path="url(#p29369a5228)" style="fill: #8dd3c7; opacity: 0.7; stroke: #000000; stroke-width: 0.8; stroke-linejoin: miter"/>
   </g>
   <g id="patch_40">
    <path d="M 210.6 59.4054 
L 221.4 59.4054 
L 221.4 48.6054 
L 210.6 48.6054 
z
" clip-path="url(#p29369a5228)" style="fill: #8dd3c7; opacity: 0.7; stroke: #000000; stroke-width: 0.8; stroke-linejoin: miter"/>
   </g>
   <g id="patch_41">
    <path d="M 210.6 5.4054 
L 221.4 5.4054 
L 221.4 -5.3946 
L 210.6 -5.3946 
z
" clip-path="url(#p29369a5228)" style="fill: #8dd3c7; opacity: 0.7; stroke: #000000; stroke-width: 0.8; stroke-linejoin: miter"/>
   </g>
   <g id="patch_42">
    <path d="M 264.6 383.4054 
L 275.4 383.4054 
L 275.4 372.6054 
L 264.6 372.6054 
z
" clip-path="url(#p29369a5228)" style="fill: #8dd3c7; opacity: 0.7; stroke: #000000; stroke-width: 0.8; stroke-linejoin: miter"/>
   </g>
   <g id="patch_43">
    <path d="M 264.6 329.4054 
L 275.4 329.4054 
L 275.4 318.6054 
L 264.6 318.6054 
z
" clip-path="url(#p29369a5228)" style="fill: #8dd3c7; opacity: 0.7; stroke: #000000; stroke-width: 0.8; stroke-linejoin: miter"/>
   </g>
   <g id="patch_44">
    <path d="M 264.6 275.4054 
L 275.4 275.4054 
L 275.4 264.6054 
L 264.6 264.6054 
z
" clip-path="url(#p29369a5228)" style="fill: #8dd3c7; opacity: 0.7; stroke: #000000; stroke-width: 0.8; stroke-linejoin: miter"/>
   </g>
   <g id="patch_45">
    <path d="M 264.6 221.4054 
L 275.4 221.4054 
L 275.4 210.6054 
L 264.6 210.6054 
z
" clip-path="url(#p29369a5228)" style="fill: #8dd3c7; opacity: 0.7; stroke: #000000; stroke-width: 0.8; stroke-linejoin: miter"/>
   </g>
   <g id="patch_46">
    <path d="M 264.6 167.4054 
L 275.4 167.4054 
L 275.4 156.6054 
L 264.6 156.6054 
z
" clip-path="url(#p29369a5228)" style="fill: #8dd3c7; opacity: 0.7; stroke: #000000; stroke-width: 0.8; stroke-linejoin: miter"/>
   </g>
   <g id="patch_47">
    <path d="M 264.6 113.4054 
L 275.4 113.4054 
L 275.4 102.6054 
L 264.6 102.6054 
z
" clip-path="url(#p29369a5228)" style="fill: #8dd3c7; opacity: 0.7; stroke: #000000; stroke-width: 0.8; stroke-linejoin: miter"/>
   </g>
   <g id="patch_48">
    <path d="M 264.6 59.4054 
L 275.4 59.4054 
L 275.4 48.6054 
L 264.6 48.6054 
z
" clip-path="url(#p29369a5228)" style="fill: #8dd3c7; opacity: 0.7; stroke: #000000; stroke-width: 0.8; stroke-linejoin: miter"/>
   </g>
   <g id="patch_49">
    <path d="M 264.6 5.4054 
L 275.4 5.4054 
L 275.4 -5.3946 
L 264.6 -5.3946 
z
" clip-path="url(#p29369a5228)" style="fill: #8dd3c7; opacity: 0.7; stroke: #000000; stroke-width: 0.8; stroke-linejoin: miter"/>
   </g>
   <g id="patch_50">
    <path d="M 318.6 383.4054 
L 329.4 383.4054 
L 329.4 372.6054 
L 318.6 372.6054 
z
" clip-path="url(#p29369a5228)" style="fill: #8dd3c7; opacity: 0.7; stroke: #000000; stroke-width: 0.8; stroke-linejoin: miter"/>
   </g>
   <g id="patch_51">
    <path d="M 318.6 329.4054 
L 329.4 329.4054 
L 329.4 318.6054 
L 318.6 318.6054 
z
" clip-path="url(#p29369a5228)" style="fill: #8dd3c7; opacity: 0.7; stroke: #000000; stroke-width: 0.8; stroke-linejoin: miter"/>
   </g>
   <g id="patch_52">
    <path d="M 318.6 275.4054 
L 329.4 275.4054 
L 329.4 264.6054 
L 318.6 264.6054 
z
" clip-path="url(#p29369a5228)" style="fill: #8dd3c7; opacity: 0.7; stroke: #000000; stroke-width: 0.8; stroke-linejoin: miter"/>
   </g>
   <g id="patch_53">
    <path d="M 318.6 221.4054 
L 329.4 221.4054 
L 329.4 210.6054 
L 318.6 210.6054 
z
" clip-path="url(#p29369a5228)" style="fill: #8dd3c7; opacity: 0.7; stroke: #000000; stroke-width: 0.8; stroke-linejoin: miter"/>
   </g>
   <g id="patch_54">
    <path d="M 318.6 167.4054 
L 329.4 167.4054 
L 329.4 156.6054 
L 318.6 156.6054 
z
" clip-path="url(#p29369a5228)" style="fill: #8dd3c7; opacity: 0.7; stroke: #000000; stroke-width: 0.8; stroke-linejoin: miter"/>
   </g>
   <g id="patch_55">
    <path d="M 318.6 113.4054 
L 329.4 113.4054 
L 329.4 102.6054 
L 318.6 102.6054 
z
" clip-path="url(#p29369a5228)" style="fill: #8dd3c7; opacity: 0.7; stroke: #000000; stroke-width: 0.8; stroke-linejoin: miter"/>
   </g>
   <g id="patch_56">
    <path d="M 318.6 59.4054 
L 329.4 59.4054 
L 329.4 48.6054 
L 318.6 48.6054 
z
" clip-path="url(#p29369a5228)" style="fill: #8dd3c7; opacity: 0.7; stroke: #000000; stroke-width: 0.8; stroke-linejoin: miter"/>
   </g>
   <g id="patch_57">
    <path d="M 318.6 5.4054 
L 329.4 5.4054 
L 329.4 -5.3946 
L 318.6 -5.3946 
z
" clip-path="url(#p29369a5228)" style="fill: #8dd3c7; opacity: 0.7; stroke: #000000; stroke-width: 0.8; stroke-linejoin: miter"/>
   </g>
   <g id="patch_58">
    <path d="M 372.6 383.4054 
L 383.4 383.4054 
L 383.4 372.6054 
L 372.6 372.6054 
z
" clip-path="url(#p29369a5228)" style="fill: #8dd3c7; opacity: 0.7; stroke: #000000; stroke-width: 0.8; stroke-linejoin: miter"/>
   </g>
   <g id="patch_59">
    <path d="M 372.6 329.4054 
L 383.4 329.4054 
L 383.4 318.6054 
L 372.6 318.6054 
z
" clip-path="url(#p29369a5228)" style="fill: #8dd3c7; opacity: 0.7; stroke: #000000; stroke-width: 0.8; stroke-linejoin: miter"/>
   </g>
   <g id="patch_60">
    <path d="M 372.6 275.4054 
L 383.4 275.4054 
L 383.4 264.6054 
L 372.6 264.6054 
z
" clip-path="url(#p29369a5228)" style="fill: #8dd3c7; opacity: 0.7; stroke: #000000; stroke-width: 0.8; stroke-linejoin: miter"/>
   </g>
   <g id="patch_61">
    <path d="M 372.6 221.4054 
L 383.4 221.4054 
L 383.4 210.6054 
L 372.6 210.6054 
z
" clip-path="url(#p29369a5228)" style="fill: #8dd3c7; opacity: 0.7; stroke: #000000; stroke-width: 0.8; stroke-linejoin: miter"/>
   </g>
   <g id="patch_62">
    <path d="M 372.6 167.4054 
L 383.4 167.4054 
L 383.4 156.6054 
L 372.6 156.6054 
z
" clip-path="url(#p29369a5228)" style="fill: #8dd3c7; opacity: 0.7; stroke: #000000; stroke-width: 0.8; stroke-linejoin: miter"/>
   </g>
   <g id="patch_63">
    <path d="M 372.6 113.4054 
L 383.4 113.4054 
L 383.4 102.6054 
L 372.6 102.6054 
z
" clip-path="url(#p29369a5228)" style="fill: #8dd3c7; opacity: 0.7; stroke: #000000; stroke-width: 0.8; stroke-linejoin: miter"/>
   </g>
   <g id="patch_64">
    <path d="M 372.6 59.4054 
L 383.4 59.4054 
L 383.4 48.6054 
L 372.6 48.6054 
z
" clip-path="url(#p29369a5228)" style="fill: #8dd3c7; opacity: 0.7; stroke: #000000; stroke-width: 0.8; stroke-linejoin: miter"/>
   </g>
   <g id="patch_65">
    <path d="M 372.6 5.4054 
L 383.4 5.4054 
L 383.4 -5.3946 
L 372.6 -5.3946 
z
" clip-path="url(#p29369a5228)" style="fill: #8dd3c7; opacity: 0.7; stroke: #000000; stroke-width: 0.8; stroke-linejoin: miter"/>
   </g>
   <g id="patch_66">
    <path d="M 426.6 383.4054 
L 437.4 383.4054 
L 437.4 372.6054 
L 426.6 372.6054 
z
" clip-path="url(#p29369a5228)" style="fill: #8dd3c7; opacity: 0.7; stroke: #000000; stroke-width: 0.8; stroke-linejoin: miter"/>
   </g>
   <g id="patch_67">
    <path d="M 426.6 329.4054 
L 437.4 329.4054 
L 437.4 318.6054 
L 426.6 318.6054 
z
" clip-path="url(#p29369a5228)" style="fill: #8dd3c7; opacity: 0.7; stroke: #000000; stroke-width: 0.8; stroke-linejoin: miter"/>
   </g>
   <g id="patch_68">
    <path d="M 426.6 275.4054 
L 437.4 275.4054 
L 437.4 264.6054 
L 426.6 264.6054 
z
" clip-path="url(#p29369a5228)" style="fill: #8dd3c7; opacity: 0.7; stroke: #000000; stroke-width: 0.8; stroke-linejoin: miter"/>
   </g>
   <g id="patch_69">
    <path d="M 426.6 221.4054 
L 437.4 221.4054 
L 437.4 210.6054 
L 426.6 210.6054 
z
" clip-path="url(#p29369a5228)" style="fill: #8dd3c7; opacity: 0.7; stroke: #000000; stroke-width: 0.8; stroke-linejoin: miter"/>
   </g>
   <g id="patch_70">
    <path d="M 426.6 167.4054 
L 437.4 167.4054 
L 437.4 156.6054 
L 426.6 156.6054 
z
" clip-path="url(#p29369a5228)" style="fill: #8dd3c7; opacity: 0.7; stroke: #000000; stroke-width: 0.8; stroke-linejoin: miter"/>
   </g>
   <g id="patch_71">
    <path d="M 426.6 113.4054 
L 437.4 113.4054 
L 437.4 102.6054 
L 426.6 102.6054 
z
" clip-path="url(#p29369a5228)" style="fill: #8dd3c7; opacity: 0.7; stroke: #000000; stroke-width: 0.8; stroke-linejoin: miter"/>
   </g>
   <g id="patch_72">
    <path d="M 426.6 59.4054 
L 437.4 59.4054 
L 437.4 48.6054 
L 426.6 48.6054 
z
" clip-path="url(#p29369a5228)" style="fill: #8dd3c7; opacity: 0.7; stroke: #000000; stroke-width: 0.8; stroke-linejoin: miter"/>
   </g>
   <g id="patch_73">
    <path d="M 426.6 5.4054 
L 437.4 5.4054 
L 437.4 -5.3946 
L 426.6 -5.3946 
z
" clip-path="url(#p29369a5228)" style="fill: #8dd3c7; opacity: 0.7; stroke: #000000; stroke-width: 0.8; stroke-linejoin: miter"/>
   </g>
   <g id="line2d_1">
    <path d="M 0 432 
L 0 0 
" clip-path="url(#p29369a5228)" style="fill: none; stroke: #000000; stroke-opacity: 0.5; stroke-width: 0.5; stroke-linecap: square"/>
   </g>
   <g id="line2d_2">
    <path d="M 54 432 
L 54 0 
" clip-path="url(#p29369a5228)" style="fill: none; stroke: #000000; stroke-opacity: 0.5; stroke-width: 0.5; stroke-linecap: square"/>
   </g>
   <g id="line2d_3">
    <path d="M 108 432 
L 108 0 
" clip-path="url(#p29369a5228)" style="fill: none; stroke: #000000; stroke-opacity: 0.5; stroke-width: 0.5; stroke-linecap: square"/>
   </g>
   <g id="line2d_4">
    <path d="M 162 432 
L 162 0 
" clip-path="url(#p29369a5228)" style="fill: none; stroke: #000000; stroke-opacity: 0.5; stroke-width: 0.5; stroke-linecap: square"/>
   </g>
   <g id="line2d_5">
    <path d="M 216 432 
L 216 0 
" clip-path="url(#p29369a5228)" style="fill: none; stroke: #000000; stroke-opacity: 0.5; stroke-width: 0.5; stroke-linecap: square"/>
   </g>
   <g id="line2d_6">
    <path d="M 270 432 
L 270 0 
" clip-path="url(#p29369a5228)" style="fill: none; stroke: #000000; stroke-opacity: 0.5; stroke-width: 0.5; stroke-linecap: square"/>
   </g>
   <g id="line2d_7">
    <path d="M 324 432 
L 324 0 
" clip-path="url(#p29369a5228)" style="fill: none; stroke: #000000; stroke-opacity: 0.5; stroke-width: 0.5; stroke-linecap: square"/>
   </g>
   <g id="line2d_8">
    <path d="M 378 432 
L 378 0 
" clip-path="url(#p29369a5228)" style="fill: none; stroke: #000000; stroke-opacity: 0.5; stroke-width: 0.5; stroke-linecap: square"/>
   </g>
   <g id="line2d_9">
    <path d="M 432 432 
L 432 0 
" clip-path="url(#p29369a5228)" style="fill: none; stroke: #000000; stroke-opacity: 0.5; stroke-width: 0.5; stroke-linecap: square"/>
   </g>
   <g id="line2d_10">
    <path d="M 0 378.0054 
L 432 378.0054 
" clip-path="url(#p29369a5228)" style="fill: none; stroke: #000000; stroke-opacity: 0.5; stroke-width: 0.5; stroke-linecap: square"/>
   </g>
   <g id="line2d_11">
    <path d="M 0 324.0054 
L 432 324.0054 
" clip-path="url(#p29369a5228)" style="fill: none; stroke: #000000; stroke-opacity: 0.5; stroke-width: 0.5; stroke-linecap: square"/>
   </g>
   <g id="line2d_12">
    <path d="M 0 270.0054 
L 432 270.0054 
" clip-path="url(#p29369a5228)" style="fill: none; stroke: #000000; stroke-opacity: 0.5; stroke-width: 0.5; stroke-linecap: square"/>
   </g>
   <g id="line2d_13">
    <path d="M 0 216.0054 
L 432 216.0054 
" clip-path="url(#p29369a5228)" style="fill: none; stroke: #000000; stroke-opacity: 0.5; stroke-width: 0.5; stroke-linecap: square"/>
   </g>
   <g id="line2d_14">
    <path d="M 0 162.0054 
L 432 162.0054 
" clip-path="url(#p29369a5228)" style="fill: none; stroke: #000000; stroke-opacity: 0.5; stroke-width: 0.5; stroke-linecap: square"/>
   </g>
   <g id="line2d_15">
    <path d="M 0 108.0054 
L 432 108.0054 
" clip-path="url(#p29369a5228)" style="fill: none; stroke: #000000; stroke-opacity: 0.5; stroke-width: 0.5; stroke-linecap: square"/>
   </g>
   <g id="line2d_16">
    <path d="M 0 54.0054 
L 432 54.0054 
" clip-path="url(#p29369a5228)" style="fill: none; stroke: #000000; stroke-opacity: 0.5; stroke-width: 0.5; stroke-linecap: square"/>
   </g>
   <g id="line2d_17">
    <path d="M 0 0.0054 
L 432 0.0054 
" clip-path="url(#p29369a5228)" style="fill: none; stroke: #000000; stroke-opacity: 0.5; stroke-width: 0.5; stroke-linecap: square"/>
   </g>
  </g>
 </g>
 <defs>
  <clipPath id="p29369a5228">
   <rect x="0" y="0" width="432" height="432"/>
  </clipPath>
 </defs>
</svg>
