<?xml version="1.0" encoding="utf-8" standalone="no"?>
<!DOCTYPE svg PUBLIC "-//W3C//DTD SVG 1.1//EN"
  "http://www.w3.org/Graphics/SVG/1.1/DTD/svg11.dtd">
<svg xmlns:xlink="http://www.w3.org/1999/xlink" width="432pt" height="432pt" viewBox="0 0 432 432" xmlns="http://www.w3.org/2000/svg" version="1.1">
 <metadata>
  <rdf:RDF xmlns:dc="http://purl.org/dc/elements/1.1/" xmlns:cc="http://creativecommons.org/ns#" xmlns:rdf="http://www.w3.org/1999/02/22-rdf-syntax-ns#">
   <cc:Work>
    <dc:type rdf:resource="http://purl.org/dc/dcmitype/StillImage"/>
    <dc:date>2026-03-19T00:31:09.371205</dc:date>
    <dc:format>image/svg+xml</dc:format>
    <dc:creator>
     <cc:Agent>
      <dc:title>Matplotlib v3.10.3, https://matplotlib.org/</dc:title>
     </cc:Agent>
    </dc:creator>
   </cc:Work>
  </rdf:RDF>
 </metadata>
 <defs>
  <style type="text/css">*{stroke-linejoin: round; stroke-linecap: butt}</style>
 </defs>
 <g id="figure_1">
  <g id="patch_1">
   <path d="M 0 432 
L 432 432 
L 432 0 
L 0 0 
L 0 432 
z
" style="fill: none"/>
  </g>
  <g id="axes_1">
   <g id="PatchCollection_1">
    <path d="M 77.142857 339.428571 
L 108 339.428571 
L 108 308.571429 
L 77.142857 308.571429 
z
" clip-path="url(#p534cb4b599)" style="fill: #8dd3c7; stroke: #000000; stroke-width: 0.8"/>
    <path d="M 108 339.428571 
L 138.857143 339.428571 
L 138.857143 308.571429 
L 108 308.571429 
z
" clip-path="url(#p534cb4b599)" style="fill: #8dd3c7; stroke: #000000; stroke-width: 0.8"/>
    <path d="M 77.142857 308.571429 
L 108 308.571429 
L 108 277.714286 
L 77.142857 277.714286 
z
" clip-path="url(#p534cb4b599)" style="fill: #8dd3c7; stroke: #000000; stroke-width: 0.8"/>
    <path d="M 138.857143 339.428571 
L 169.714286 339.428571 
L 169.714286 308.571429 
L 138.857143 308.571429 
z
" clip-path="url(#p534cb4b599)" style="fill: #8dd3c7; stroke: #000000; stroke-width: 0.8"/>
    <path d="M 108 308.571429 
L 138.857143 308.571429 
L 138.857143 277.714286 
L 108 277.714286 
z
" clip-path="url(#p534cb4b599)" style="fill: #8dd3c7; stroke: #000000; stroke-width: 0.8"/>
    <path d="M 77.142857 277.714286 
L 108 277.714286 
L 108 246.857143 
L 77.142857 246.857143 
z
" clip-path="url(#p534cb4b599)" style="fill: #8dd3c7; stroke: #000000; stroke-width: 0.8"/>
    <path d="M 169.714286 339.428571 
L 200.571429 339.428571 
L 200.571429 308.571429 
L 169.714286 308.571429 
z
" clip-path="url(#p534cb4b599)" style="fill: #8dd3c7; stroke: #000000; stroke-width: 0.8"/>
    <path d="M 138.857143 308.571429 
L 169.714286 308.571429 
L 169.714286 277.714286 
L 138.857143 277.714286 
z
" clip-path="url(#p534cb4b599)" style="fill: #8dd3c7; stroke: #000000; stroke-width: 0.8"/>
    <path d="M 108 277.714286 
L 138.857143 277.714286 
L 138.857143 246.857143 
L 108 246.857143 
z
" clip-path="url(#p534cb4b599)" style="fill: #8dd3c7; stroke: #000000; stroke-width: 0.8"/>
    <path d="M 77.142857 246.857143 
L 108 246.857143 
L 108 216 
L 77.142857 216 
z
" clip-path="url(#p534cb4b599)" style="fill: #8dd3c7; stroke: #000000; stroke-width: 0.8"/>
    <path d="M 200.571429 339.428571 
L 231.428571 339.428571 
L 231.428571 308.571429 
L 200.571429 308.571429 
z
" clip-path="url(#p534cb4b599)" style="fill: #8dd3c7; stroke: #000000; stroke-width: 0.8"/>
    <path d="M 169.714286 308.571429 
L 200.571429 308.571429 
L 200.571429 277.714286 
L 169.714286 277.714286 
z
" clip-path="url(#p534cb4b599)" style="fill: #8dd3c7; stroke: #000000; stroke-width: 0.8"/>
    <path d="M 138.857143 277.714286 
L 169.714286 277.714286 
L 169.714286 246.857143 
L 138.857143 246.857143 
z
" clip-path="url(#p534cb4b599)" style="fill: #8dd3c7; stroke: #000000; stroke-width: 0.8"/>
    <path d="M 108 246.857143 
L 138.857143 246.857143 
L 138.857143 216 
L 108 216 
z
" clip-path="url(#p534cb4b599)" style="fill: #8dd3c7; stroke: #000000; stroke-width: 0.8"/>
    <path d="M 77.142857 216 
L 108 216 
L 108 185.142857 
L 77.142857 185.142857 
z
" clip-path="url(#p534cb4b599)" style="fill: #8dd3c7; stroke: #000000; stroke-width: 0.8"/>
    <path d="M 231.428571 339.428571 
L 262.285714 339.428571 
L 262.285714 308.571429 
L 231.428571 308.571429 
z
" clip-path="url(#p534cb4b599)" style="fill: #8dd3c7; stroke: #000000; stroke-width: 0.8"/>
    <path d="M 200.571429 308.571429 
L 231.428571 308.571429 
L 231.428571 277.714286 
L 200.571429 277.714286 
z
" clip-path="url(#p534cb4b599)" style="fill: #8dd3c7; stroke: #000000; stroke-width: 0.8"/>
    <path d="M 169.714286 277.714286 
L 200.571429 277.714286 
L 200.571429 246.857143 
L 169.714286 246.857143 
z
" clip-path="url(#p534cb4b599)" style="fill: #8dd3c7; stroke: #000000; stroke-width: 0.8"/>
    <path d="M 138.857143 246.857143 
L 169.714286 246.857143 
L 169.714286 216 
L 138.857143 216 
z
" clip-path="url(#p534cb4b599)" style="fill: #8dd3c7; stroke: #000000; stroke-width: 0.8"/>
    <path d="M 108 216 
L 138.857143 216 
L 138.857143 185.142857 
L 108 185.142857 
z
" clip-path="url(#p534cb4b599)" style="fill: #8dd3c7; stroke: #000000; stroke-width: 0.8"/>
    <path d="M 77.142857 185.142857 
L 108 185.142857 
L 108 154.285714 
L 77.142857 154.285714 
z
" clip-path="url(#p534cb4b599)" style="fill: #8dd3c7; stroke: #000000; stroke-width: 0.8"/>
    <path d="M 262.285714 339.428571 
L 293.142857 339.428571 
L 293.142857 308.571429 
L 262.285714 308.571429 
z
" clip-path="url(#p534cb4b599)" style="fill: #8dd3c7; stroke: #000000; stroke-width: 0.8"/>
    <path d="M 231.428571 308.571429 
L 262.285714 308.571429 
L 262.285714 277.714286 
L 231.428571 277.714286 
z
" clip-path="url(#p534cb4b599)" style="fill: #8dd3c7; stroke: #000000; stroke-width: 0.8"/>
    <path d="M 200.571429 277.714286 
L 231.428571 277.714286 
L 231.428571 246.857143 
L 200.571429 246.857143 
z
" clip-path="url(#p534cb4b599)" style="fill: #8dd3c7; stroke: #000000; stroke-width: 0.8"/>
    <path d="M 169.714286 246.857143 
L 200.571429 246.857143 
L 200.571429 216 
L 169.714286 216 
z
" clip-path="url(#p534cb4b599)" style="fill: #8dd3c7; stroke: #000000; stroke-width: 0.8"/>
    <path d="M 138.857143 216 
L 169.714286 216 
L 169.714286 185.142857 
L 138.857143 185.142857 
z
" clip-path="url(#p534cb4b599)" style="fill: #8dd3c7; stroke: #000000; stroke-width: 0.8"/>
    <path d="M 108 185.142857 
L 138.857143 185.142857 
L 138.857143 154.285714 
L 108 154.285714 
z
" clip-path="url(#p534cb4b599)" style="fill: #8dd3c7; stroke: #000000; stroke-width: 0.8"/>
    <path d="M 77.142857 154.285714 
L 108 154.285714 
L 108 123.428571 
L 77.142857 123.428571 
z
" clip-path="url(#p534cb4b599)" style="fill: #8dd3c7; stroke: #000000; stroke-width: 0.8"/>
    <path d="M 293.142857 339.428571 
L 324 339.428571 
L 324 308.571429 
L 293.142857 308.571429 
z
" clip-path="url(#p534cb4b599)" style="fill: #8dd3c7; stroke: #000000; stroke-width: 0.8"/>
    <path d="M 262.285714 308.571429 
L 293.142857 308.571429 
L 293.142857 277.714286 
L 262.285714 277.714286 
z
" clip-path="url(#p534cb4b599)" style="fill: #8dd3c7; stroke: #000000; stroke-width: 0.8"/>
    <path d="M 231.428571 277.714286 
L 262.285714 277.714286 
L 262.285714 246.857143 
L 231.428571 246.857143 
z
" clip-path="url(#p534cb4b599)" style="fill: #8dd3c7; stroke: #000000; stroke-width: 0.8"/>
    <path d="M 200.571429 246.857143 
L 231.428571 246.857143 
L 231.428571 216 
L 200.571429 216 
z
" clip-path="url(#p534cb4b599)" style="fill: #8dd3c7; stroke: #000000; stroke-width: 0.8"/>
    <path d="M 169.714286 216 
L 200.571429 216 
L 200.571429 185.142857 
L 169.714286 185.142857 
z
" clip-path="url(#p534cb4b599)" style="fill: #8dd3c7; stroke: #000000; stroke-width: 0.8"/>
    <path d="M 138.857143 185.142857 
L 169.714286 185.142857 
L 169.714286 154.285714 
L 138.857143 154.285714 
z
" clip-path="url(#p534cb4b599)" style="fill: #8dd3c7; stroke: #000000; stroke-width: 0.8"/>
    <path d="M 108 154.285714 
L 138.857143 154.285714 
L 138.857143 123.428571 
L 108 123.428571 
z
" clip-path="url(#p534cb4b599)" style="fill: #8dd3c7; stroke: #000000; stroke-width: 0.8"/>
    <path d="M 77.142857 123.428571 
L 108 123.428571 
L 108 92.571429 
L 77.142857 92.571429 
z
" clip-path="url(#p534cb4b599)" style="fill: #8dd3c7; stroke: #000000; stroke-width: 0.8"/>
    <path d="M 324 339.428571 
L 354.857143 339.428571 
L 354.857143 308.571429 
L 324 308.571429 
z
" clip-path="url(#p534cb4b599)" style="fill: #8dd3c7; stroke: #000000; stroke-width: 0.8"/>
    <path d="M 293.142857 308.571429 
L 324 308.571429 
L 324 277.714286 
L 293.142857 277.714286 
z
" clip-path="url(#p534cb4b599)" style="fill: #8dd3c7; stroke: #000000; stroke-width: 0.8"/>
    <path d="M 262.285714 277.714286 
L 293.142857 277.714286 
L 293.142857 246.857143 
L 262.285714 246.857143 
z
" clip-path="url(#p534cb4b599)" style="fill: #8dd3c7; stroke: #000000; stroke-width: 0.8"/>
    <path d="M 231.428571 246.857143 
L 262.285714 246.857143 
L 262.285714 216 
L 231.428571 216 
z
" clip-path="url(#p534cb4b599)" style="fill: #8dd3c7; stroke: #000000; stroke-width: 0.8"/>
    <path d="M 200.571429 216 
L 231.428571 216 
L 231.428571 185.142857 
L 200.571429 185.142857 
z
" clip-path="url(#p534cb4b599)" style="fill: #8dd3c7; stroke: #000000; stroke-width: 0.8"/>
    <path d="M 169.714286 185.142857 
L 200.571429 185.142857 
L 200.571429 154.285714 
L 169.714286 154.285714 
z
" clip-path="url(#p534cb4b599)" style="fill: #8dd3c7; stroke: #000000; stroke-width: 0.8"/>
    <path d="M 138.857143 154.285714 
L 169.714286 154.285714 
L 169.714286 123.428571 
L 138.857143 123.428571 
z
" clip-path="url(#p534cb4b599)" style="fill: #8dd3c7; stroke: #000000; stroke-width: 0.8"/>
    <path d="M 108 123.428571 
L 138.857143 123.428571 
L 138.857143 92.571429 
L 108 92.571429 
z
" clip-path="url(#p534cb4b599)" style="fill: #8dd3c7; stroke: #000000; stroke-width: 0.8"/>
    <path d="M 324 308.571429 
L 354.857143 308.571429 
L 354.857143 277.714286 
L 324 277.714286 
z
" clip-path="url(#p534cb4b599)" style="fill: #8dd3c7; stroke: #000000; stroke-width: 0.8"/>
    <path d="M 293.142857 277.714286 
L 324 277.714286 
L 324 246.857143 
L 293.142857 246.857143 
z
" clip-path="url(#p534cb4b599)" style="fill: #8dd3c7; stroke: #000000; stroke-width: 0.8"/>
    <path d="M 262.285714 246.857143 
L 293.142857 246.857143 
L 293.142857 216 
L 262.285714 216 
z
" clip-path="url(#p534cb4b599)" style="fill: #8dd3c7; stroke: #000000; stroke-width: 0.8"/>
    <path d="M 231.428571 216 
L 262.285714 216 
L 262.285714 185.142857 
L 231.428571 185.142857 
z
" clip-path="url(#p534cb4b599)" style="fill: #8dd3c7; stroke: #000000; stroke-width: 0.8"/>
    <path d="M 200.571429 185.142857 
L 231.428571 185.142857 
L 231.428571 154.285714 
L 200.571429 154.285714 
z
" clip-path="url(#p534cb4b599)" style="fill: #8dd3c7; stroke: #000000; stroke-width: 0.8"/>
    <path d="M 169.714286 154.285714 
L 200.571429 154.285714 
L 200.571429 123.428571 
L 169.714286 123.428571 
z
" clip-path="url(#p534cb4b599)" style="fill: #8dd3c7; stroke: #000000; stroke-width: 0.8"/>
    <path d="M 138.857143 123.428571 
L 169.714286 123.428571 
L 169.714286 92.571429 
L 138.857143 92.571429 
z
" clip-path="url(#p534cb4b599)" style="fill: #8dd3c7; stroke: #000000; stroke-width: 0.8"/>
    <path d="M 324 277.714286 
L 354.857143 277.714286 
L 354.857143 246.857143 
L 324 246.857143 
z
" clip-path="url(#p534cb4b599)" style="fill: #8dd3c7; stroke: #000000; stroke-width: 0.8"/>
    <path d="M 293.142857 246.857143 
L 324 246.857143 
L 324 216 
L 293.142857 216 
z
" clip-path="url(#p534cb4b599)" style="fill: #8dd3c7; stroke: #000000; stroke-width: 0.8"/>
    <path d="M 262.285714 216 
L 293.142857 216 
L 293.142857 185.142857 
L 262.285714 185.142857 
z
" clip-path="url(#p534cb4b599)" style="fill: #8dd3c7; stroke: #000000; stroke-width: 0.8"/>
    <path d="M 231.428571 185.142857 
L 262.285714 185.142857 
L 262.285714 154.285714 
L 231.428571 154.285714 
z
" clip-path="url(#p534cb4b599)" style="fill: #8dd3c7; stroke: #000000; stroke-width: 0.8"/>
    <path d="M 200.571429 154.285714 
L 231.428571 154.285714 
L 231.428571 123.428571 
L 200.571429 123.428571 
z
" clip-path="url(#p534cb4b599)" style="fill: #8dd3c7; stroke: #000000; stroke-width: 0.8"/>
    <path d="M 169.714286 123.428571 
L 200.571429 123.428571 
L 200.571429 92.571429 
L 169.714286 92.571429 
z
" clip-path="url(#p534cb4b599)" style="fill: #8dd3c7; stroke: #000000; stroke-width: 0.8"/>
    <path d="M 324 246.857143 
L 354.857143 246.857143 
L 354.857143 216 
L 324 216 
z
" clip-path="url(#p534cb4b599)" style="fill: #8dd3c7; stroke: #000000; stroke-width: 0.8"/>
    <path d="M 293.142857 216 
L 324 216 
L 324 185.142857 
L 293.142857 185.142857 
z
" clip-path="url(#p534cb4b599)" style="fill: #8dd3c7; stroke: #000000; stroke-width: 0.8"/>
    <path d="M 262.285714 185.142857 
L 293.142857 185.142857 
L 293.142857 154.285714 
L 262.285714 154.285714 
z
" clip-path="url(#p534cb4b599)" style="fill: #8dd3c7; stroke: #000000; stroke-width: 0.8"/>
    <path d="M 231.428571 154.285714 
L 262.285714 154.285714 
L 262.285714 123.428571 
L 231.428571 123.428571 
z
" clip-path="url(#p534cb4b599)" style="fill: #8dd3c7; stroke: #000000; stroke-width: 0.8"/>
    <path d="M 200.571429 123.428571 
L 231.428571 123.428571 
L 231.428571 92.571429 
L 200.571429 92.571429 
z
" clip-path="url(#p534cb4b599)" style="fill: #8dd3c7; stroke: #000000; stroke-width: 0.8"/>
    <path d="M 324 216 
L 354.857143 216 
L 354.857143 185.142857 
L 324 185.142857 
z
" clip-path="url(#p534cb4b599)" style="fill: #8dd3c7; stroke: #000000; stroke-width: 0.8"/>
    <path d="M 293.142857 185.142857 
L 324 185.142857 
L 324 154.285714 
L 293.142857 154.285714 
z
" clip-path="url(#p534cb4b599)" style="fill: #8dd3c7; stroke: #000000; stroke-width: 0.8"/>
    <path d="M 262.285714 154.285714 
L 293.142857 154.285714 
L 293.142857 123.428571 
L 262.285714 123.428571 
z
" clip-path="url(#p534cb4b599)" style="fill: #8dd3c7; stroke: #000000; stroke-width: 0.8"/>
    <path d="M 231.428571 123.428571 
L 262.285714 123.428571 
L 262.285714 92.571429 
L 231.428571 92.571429 
z
" clip-path="url(#p534cb4b599)" style="fill: #8dd3c7; stroke: #000000; stroke-width: 0.8"/>
    <path d="M 324 185.142857 
L 354.857143 185.142857 
L 354.857143 154.285714 
L 324 154.285714 
z
" clip-path="url(#p534cb4b599)" style="fill: #8dd3c7; stroke: #000000; stroke-width: 0.8"/>
    <path d="M 293.142857 154.285714 
L 324 154.285714 
L 324 123.428571 
L 293.142857 123.428571 
z
" clip-path="url(#p534cb4b599)" style="fill: #8dd3c7; stroke: #000000; stroke-width: 0.8"/>
    <path d="M 262.285714 123.428571 
L 293.142857 123.428571 
L 293.142857 92.571429 
L 262.285714 92.571429 
z
" clip-path="url(#p534cb4b599)" style="fill: #8dd3c7; stroke: #000000; stroke-width: 0.8"/>
    <path d="M 324 154.285714 
L 354.857143 154.285714 
L 354.857143 123.428571 
L 324 123.428571 
z
" clip-path="url(#p534cb4b599)" style="fill: #8dd3c7; stroke: #000000; stroke-width: 0.8"/>
    <path d="M 293.142857 123.428571 
L 324 123.428571 
L 324 92.571429 
L 293.142857 92.571429 
z
" clip-path="url(#p534cb4b599)" style="fill: #8dd3c7; stroke: #000000; stroke-width: 0.8"/>
    <path d="M 324 123.428571 
L 354.857143 123.428571 
L 354.857143 92.571429 
L 324 92.571429 
z
" clip-path="url(#p534cb4b599)" style="fill: #8dd3c7; stroke: #000000; stroke-width: 0.8"/>
   </g>
  </g>
 </g>
 <defs>
  <clipPath id="p534cb4b599">
   <rect x="0" y="0" width="432" height="432"/>
  </clipPath>
 </defs>
</svg>
