<?xml version="1.0" encoding="utf-8" standalone="no"?>
<!DOCTYPE svg PUBLIC "-//W3C//DTD SVG 1.1//EN"
  "http://www.w3.org/Graphics/SVG/1.1/DTD/svg11.dtd">
<svg xmlns:xlink="http://www.w3.org/1999/xlink" width="432pt" height="432pt" viewBox="0 0 432 432" xmlns="http://www.w3.org/2000/svg" version="1.1">
 <metadata>
  <rdf:RDF xmlns:dc="http://purl.org/dc/elements/1.1/" xmlns:cc="http://creativecommons.org/ns#" xmlns:rdf="http://www.w3.org/1999/02/22-rdf-syntax-ns#">
   <cc:Work>
    <dc:type rdf:resource="http://purl.org/dc/dcmitype/StillImage"/>
    <dc:date>2026-04-06T10:56:51.543701</dc:date>
    <dc:format>image/svg+xml</dc:format>
    <dc:creator>
     <cc:Agent>
      <dc:title>Matplotlib v3.10.3, https://matplotlib.org/</dc:title>
     </cc:Agent>
    </dc:creator>
   </cc:Work>
  </rdf:RDF>
 </metadata>
 <defs>
  <style type="text/css">*{stroke-linejoin: round; stroke-linecap: butt}</style>
 </defs>
 <g id="figure_1">
  <g id="patch_1">
   <path d="M 0 432 
L 432 432 
L 432 0 
L 0 0 
L 0 432 
z
" style="fill: none"/>
  </g>
  <g id="axes_1">
   <g id="patch_2">
    <path d="M 213.428477 215.36533 
L 216.814985 212.683174 
L 218.568753 216.631173 
L 215.182245 219.313329 
z
" clip-path="url(#pf835540f2e)" style="fill: #b3de69; stroke: #000000; stroke-width: 0.8; stroke-linejoin: miter"/>
   </g>
   <g id="patch_3">
    <path d="M 227.275992 232.849293 
L 230.6625 230.167137 
L 232.416268 234.115136 
L 229.02976 236.797293 
z
" clip-path="url(#pf835540f2e)" style="fill: #b3de69; stroke: #000000; stroke-width: 0.8; stroke-linejoin: miter"/>
   </g>
   <g id="patch_4">
    <path d="M 241.123506 250.333257 
L 244.510014 247.6511 
L 246.263782 251.5991 
L 242.877274 254.281256 
z
" clip-path="url(#pf835540f2e)" style="fill: #b3de69; stroke: #000000; stroke-width: 0.8; stroke-linejoin: miter"/>
   </g>
   <g id="patch_5">
    <path d="M 254.971021 267.81722 
L 258.357529 265.135063 
L 260.111297 269.083063 
L 256.724789 271.765219 
z
" clip-path="url(#pf835540f2e)" style="fill: #b3de69; stroke: #000000; stroke-width: 0.8; stroke-linejoin: miter"/>
   </g>
   <g id="patch_6">
    <path d="M 233.811323 206.310926 
L 237.197831 203.62877 
L 238.951599 207.576769 
L 235.565091 210.258926 
z
" clip-path="url(#pf835540f2e)" style="fill: #b3de69; stroke: #000000; stroke-width: 0.8; stroke-linejoin: miter"/>
   </g>
   <g id="patch_7">
    <path d="M 247.658837 223.79489 
L 251.045346 221.112733 
L 252.799113 225.060733 
L 249.412605 227.742889 
z
" clip-path="url(#pf835540f2e)" style="fill: #b3de69; stroke: #000000; stroke-width: 0.8; stroke-linejoin: miter"/>
   </g>
   <g id="patch_8">
    <path d="M 261.506352 241.278853 
L 264.89286 238.596696 
L 266.646628 242.544696 
L 263.26012 245.226852 
z
" clip-path="url(#pf835540f2e)" style="fill: #b3de69; stroke: #000000; stroke-width: 0.8; stroke-linejoin: miter"/>
   </g>
   <g id="patch_9">
    <path d="M 275.353866 258.762816 
L 278.740375 256.08066 
L 280.494142 260.028659 
L 277.107634 262.710815 
z
" clip-path="url(#pf835540f2e)" style="fill: #b3de69; stroke: #000000; stroke-width: 0.8; stroke-linejoin: miter"/>
   </g>
   <g id="patch_10">
    <path d="M 254.194169 197.256522 
L 257.580677 194.574366 
L 259.334445 198.522365 
L 255.947936 201.204522 
z
" clip-path="url(#pf835540f2e)" style="fill: #b3de69; stroke: #000000; stroke-width: 0.8; stroke-linejoin: miter"/>
   </g>
   <g id="patch_11">
    <path d="M 268.041683 214.740486 
L 271.428191 212.058329 
L 273.181959 216.006329 
L 269.795451 218.688485 
z
" clip-path="url(#pf835540f2e)" style="fill: #b3de69; stroke: #000000; stroke-width: 0.8; stroke-linejoin: miter"/>
   </g>
   <g id="patch_12">
    <path d="M 281.889198 232.224449 
L 285.275706 229.542293 
L 287.029474 233.490292 
L 283.642965 236.172448 
z
" clip-path="url(#pf835540f2e)" style="fill: #b3de69; stroke: #000000; stroke-width: 0.8; stroke-linejoin: miter"/>
   </g>
   <g id="patch_13">
    <path d="M 295.736712 249.708412 
L 299.12322 247.026256 
L 300.876988 250.974255 
L 297.49048 253.656411 
z
" clip-path="url(#pf835540f2e)" style="fill: #b3de69; stroke: #000000; stroke-width: 0.8; stroke-linejoin: miter"/>
   </g>
   <g id="patch_14">
    <path d="M 274.577014 188.202119 
L 277.963523 185.519962 
L 279.71729 189.467962 
L 276.330782 192.150118 
z
" clip-path="url(#pf835540f2e)" style="fill: #b3de69; stroke: #000000; stroke-width: 0.8; stroke-linejoin: miter"/>
   </g>
   <g id="patch_15">
    <path d="M 288.424529 205.686082 
L 291.811037 203.003926 
L 293.564805 206.951925 
L 290.178297 209.634081 
z
" clip-path="url(#pf835540f2e)" style="fill: #b3de69; stroke: #000000; stroke-width: 0.8; stroke-linejoin: miter"/>
   </g>
   <g id="patch_16">
    <path d="M 302.272043 223.170045 
L 305.658552 220.487889 
L 307.412319 224.435888 
L 304.025811 227.118044 
z
" clip-path="url(#pf835540f2e)" style="fill: #b3de69; stroke: #000000; stroke-width: 0.8; stroke-linejoin: miter"/>
   </g>
   <g id="patch_17">
    <path d="M 316.119558 240.654008 
L 319.506066 237.971852 
L 321.259834 241.919851 
L 317.873326 244.602008 
z
" clip-path="url(#pf835540f2e)" style="fill: #b3de69; stroke: #000000; stroke-width: 0.8; stroke-linejoin: miter"/>
   </g>
   <g id="patch_18">
    <path d="M 212.201252 217.84234 
L 215.58776 215.160184 
L 219.78593 214.141476 
L 216.399422 216.823632 
z
" clip-path="url(#pf835540f2e)" style="fill: #8dd3c7; stroke: #000000; stroke-width: 0.8; stroke-linejoin: miter"/>
   </g>
   <g id="patch_19">
    <path d="M 244.245829 258.302035 
L 247.632337 255.619878 
L 251.830508 254.601171 
L 248.443999 257.283327 
z
" clip-path="url(#pf835540f2e)" style="fill: #8dd3c7; stroke: #000000; stroke-width: 0.8; stroke-linejoin: miter"/>
   </g>
   <g id="patch_20">
    <path d="M 276.290406 298.761729 
L 279.676914 296.079573 
L 283.875085 295.060865 
L 280.488576 297.743022 
z
" clip-path="url(#pf835540f2e)" style="fill: #8dd3c7; stroke: #000000; stroke-width: 0.8; stroke-linejoin: miter"/>
   </g>
   <g id="patch_21">
    <path d="M 308.334983 339.221424 
L 311.721491 336.539268 
L 315.919662 335.52056 
L 312.533154 338.202716 
z
" clip-path="url(#pf835540f2e)" style="fill: #8dd3c7; stroke: #000000; stroke-width: 0.8; stroke-linejoin: miter"/>
   </g>
   <g id="patch_22">
    <path d="M 200.030428 167.685458 
L 203.416936 165.003301 
L 207.615106 163.984594 
L 204.228598 166.66675 
z
" clip-path="url(#pf835540f2e)" style="fill: #8dd3c7; stroke: #000000; stroke-width: 0.8; stroke-linejoin: miter"/>
   </g>
   <g id="patch_23">
    <path d="M 232.075005 208.145152 
L 235.461513 205.462996 
L 239.659683 204.444288 
L 236.273175 207.126445 
z
" clip-path="url(#pf835540f2e)" style="fill: #8dd3c7; stroke: #000000; stroke-width: 0.8; stroke-linejoin: miter"/>
   </g>
   <g id="patch_24">
    <path d="M 264.119582 248.604847 
L 267.50609 245.922691 
L 271.70426 244.903983 
L 268.317752 247.586139 
z
" clip-path="url(#pf835540f2e)" style="fill: #8dd3c7; stroke: #000000; stroke-width: 0.8; stroke-linejoin: miter"/>
   </g>
   <g id="patch_25">
    <path d="M 296.164159 289.064541 
L 299.550667 286.382385 
L 303.748838 285.363678 
L 300.362329 288.045834 
z
" clip-path="url(#pf835540f2e)" style="fill: #8dd3c7; stroke: #000000; stroke-width: 0.8; stroke-linejoin: miter"/>
   </g>
   <g id="patch_26">
    <path d="M 187.859603 117.528575 
L 191.246112 114.846419 
L 195.444282 113.827711 
L 192.057774 116.509868 
z
" clip-path="url(#pf835540f2e)" style="fill: #8dd3c7; stroke: #000000; stroke-width: 0.8; stroke-linejoin: miter"/>
   </g>
   <g id="patch_27">
    <path d="M 219.90418 157.98827 
L 223.290689 155.306114 
L 227.488859 154.287406 
L 224.102351 156.969562 
z
" clip-path="url(#pf835540f2e)" style="fill: #8dd3c7; stroke: #000000; stroke-width: 0.8; stroke-linejoin: miter"/>
   </g>
   <g id="patch_28">
    <path d="M 251.948758 198.447964 
L 255.335266 195.765808 
L 259.533436 194.747101 
L 256.146928 197.429257 
z
" clip-path="url(#pf835540f2e)" style="fill: #8dd3c7; stroke: #000000; stroke-width: 0.8; stroke-linejoin: miter"/>
   </g>
   <g id="patch_29">
    <path d="M 283.993335 238.907659 
L 287.379843 236.225503 
L 291.578013 235.206795 
L 288.191505 237.888952 
z
" clip-path="url(#pf835540f2e)" style="fill: #8dd3c7; stroke: #000000; stroke-width: 0.8; stroke-linejoin: miter"/>
   </g>
   <g id="patch_30">
    <path d="M 175.688779 67.371693 
L 179.075287 64.689537 
L 183.273458 63.670829 
L 179.88695 66.352985 
z
" clip-path="url(#pf835540f2e)" style="fill: #8dd3c7; stroke: #000000; stroke-width: 0.8; stroke-linejoin: miter"/>
   </g>
   <g id="patch_31">
    <path d="M 207.733356 107.831387 
L 211.119864 105.149231 
L 215.318035 104.130524 
L 211.931527 106.81268 
z
" clip-path="url(#pf835540f2e)" style="fill: #8dd3c7; stroke: #000000; stroke-width: 0.8; stroke-linejoin: miter"/>
   </g>
   <g id="patch_32">
    <path d="M 239.777933 148.291082 
L 243.164442 145.608926 
L 247.362612 144.590218 
L 243.976104 147.272375 
z
" clip-path="url(#pf835540f2e)" style="fill: #8dd3c7; stroke: #000000; stroke-width: 0.8; stroke-linejoin: miter"/>
   </g>
   <g id="patch_33">
    <path d="M 271.82251 188.750777 
L 275.209019 186.06862 
L 279.407189 185.049913 
L 276.020681 187.732069 
z
" clip-path="url(#pf835540f2e)" style="fill: #8dd3c7; stroke: #000000; stroke-width: 0.8; stroke-linejoin: miter"/>
   </g>
   <g id="patch_34">
    <path d="M 213.0195 214.535003 
L 214.773268 218.483002 
L 218.971439 217.464295 
L 217.217671 213.516296 
z
" clip-path="url(#pf835540f2e)" style="fill: #ffed6f; stroke: #000000; stroke-width: 0.8; stroke-linejoin: miter"/>
   </g>
   <g id="patch_35">
    <path d="M 233.083587 205.622197 
L 234.837355 209.570197 
L 239.035526 208.551489 
L 237.281758 204.60349 
z
" clip-path="url(#pf835540f2e)" style="fill: #ffed6f; stroke: #000000; stroke-width: 0.8; stroke-linejoin: miter"/>
   </g>
   <g id="patch_36">
    <path d="M 253.147675 196.709391 
L 254.901443 200.657391 
L 259.099613 199.638683 
L 257.345845 195.690684 
z
" clip-path="url(#pf835540f2e)" style="fill: #ffed6f; stroke: #000000; stroke-width: 0.8; stroke-linejoin: miter"/>
   </g>
   <g id="patch_37">
    <path d="M 273.211762 187.796585 
L 274.96553 191.744585 
L 279.1637 190.725877 
L 277.409932 186.777878 
z
" clip-path="url(#pf835540f2e)" style="fill: #ffed6f; stroke: #000000; stroke-width: 0.8; stroke-linejoin: miter"/>
   </g>
   <g id="patch_38">
    <path d="M 218.196664 235.870483 
L 219.950431 239.818482 
L 224.148602 238.799774 
L 222.394834 234.851775 
z
" clip-path="url(#pf835540f2e)" style="fill: #ffed6f; stroke: #000000; stroke-width: 0.8; stroke-linejoin: miter"/>
   </g>
   <g id="patch_39">
    <path d="M 238.260751 226.957677 
L 240.014519 230.905676 
L 244.212689 229.886968 
L 242.458921 225.938969 
z
" clip-path="url(#pf835540f2e)" style="fill: #ffed6f; stroke: #000000; stroke-width: 0.8; stroke-linejoin: miter"/>
   </g>
   <g id="patch_40">
    <path d="M 258.324838 218.044871 
L 260.078606 221.99287 
L 264.276776 220.974163 
L 262.523008 217.026163 
z
" clip-path="url(#pf835540f2e)" style="fill: #ffed6f; stroke: #000000; stroke-width: 0.8; stroke-linejoin: miter"/>
   </g>
   <g id="patch_41">
    <path d="M 278.388925 209.132065 
L 280.142693 213.080064 
L 284.340863 212.061357 
L 282.587096 208.113357 
z
" clip-path="url(#pf835540f2e)" style="fill: #ffed6f; stroke: #000000; stroke-width: 0.8; stroke-linejoin: miter"/>
   </g>
   <g id="patch_42">
    <path d="M 223.373827 257.205962 
L 225.127595 261.153961 
L 229.325765 260.135254 
L 227.571997 256.187254 
z
" clip-path="url(#pf835540f2e)" style="fill: #ffed6f; stroke: #000000; stroke-width: 0.8; stroke-linejoin: miter"/>
   </g>
   <g id="patch_43">
    <path d="M 243.437914 248.293156 
L 245.191682 252.241155 
L 249.389852 251.222448 
L 247.636084 247.274449 
z
" clip-path="url(#pf835540f2e)" style="fill: #ffed6f; stroke: #000000; stroke-width: 0.8; stroke-linejoin: miter"/>
   </g>
   <g id="patch_44">
    <path d="M 263.502001 239.38035 
L 265.255769 243.32835 
L 269.45394 242.309642 
L 267.700172 238.361643 
z
" clip-path="url(#pf835540f2e)" style="fill: #ffed6f; stroke: #000000; stroke-width: 0.8; stroke-linejoin: miter"/>
   </g>
   <g id="patch_45">
    <path d="M 283.566088 230.467544 
L 285.319856 234.415544 
L 289.518027 233.396836 
L 287.764259 229.448837 
z
" clip-path="url(#pf835540f2e)" style="fill: #ffed6f; stroke: #000000; stroke-width: 0.8; stroke-linejoin: miter"/>
   </g>
   <g id="patch_46">
    <path d="M 228.55099 278.541441 
L 230.304758 282.489441 
L 234.502928 281.470733 
L 232.749161 277.522734 
z
" clip-path="url(#pf835540f2e)" style="fill: #ffed6f; stroke: #000000; stroke-width: 0.8; stroke-linejoin: miter"/>
   </g>
   <g id="patch_47">
    <path d="M 248.615077 269.628636 
L 250.368845 273.576635 
L 254.567016 272.557927 
L 252.813248 268.609928 
z
" clip-path="url(#pf835540f2e)" style="fill: #ffed6f; stroke: #000000; stroke-width: 0.8; stroke-linejoin: miter"/>
   </g>
   <g id="patch_48">
    <path d="M 268.679165 260.71583 
L 270.432932 264.663829 
L 274.631103 263.645121 
L 272.877335 259.697122 
z
" clip-path="url(#pf835540f2e)" style="fill: #ffed6f; stroke: #000000; stroke-width: 0.8; stroke-linejoin: miter"/>
   </g>
   <g id="patch_49">
    <path d="M 288.743252 251.803024 
L 290.49702 255.751023 
L 294.69519 254.732316 
L 292.941422 250.784316 
z
" clip-path="url(#pf835540f2e)" style="fill: #ffed6f; stroke: #000000; stroke-width: 0.8; stroke-linejoin: miter"/>
   </g>
  </g>
 </g>
 <defs>
  <clipPath id="pf835540f2e">
   <rect x="0" y="0" width="432" height="432"/>
  </clipPath>
 </defs>
</svg>
