<?xml version="1.0" encoding="utf-8" standalone="no"?>
<!DOCTYPE svg PUBLIC "-//W3C//DTD SVG 1.1//EN"
  "http://www.w3.org/Graphics/SVG/1.1/DTD/svg11.dtd">
<svg xmlns:xlink="http://www.w3.org/1999/xlink" width="522.507819pt" height="432pt" viewBox="0 0 522.507819 432" xmlns="http://www.w3.org/2000/svg" version="1.1">
 <metadata>
  <rdf:RDF xmlns:dc="http://purl.org/dc/elements/1.1/" xmlns:cc="http://creativecommons.org/ns#" xmlns:rdf="http://www.w3.org/1999/02/22-rdf-syntax-ns#">
   <cc:Work>
    <dc:type rdf:resource="http://purl.org/dc/dcmitype/StillImage"/>
    <dc:date>2026-04-06T11:01:26.932443</dc:date>
    <dc:format>image/svg+xml</dc:format>
    <dc:creator>
     <cc:Agent>
      <dc:title>Matplotlib v3.10.3, https://matplotlib.org/</dc:title>
     </cc:Agent>
    </dc:creator>
   </cc:Work>
  </rdf:RDF>
 </metadata>
 <defs>
  <style type="text/css">*{stroke-linejoin: round; stroke-linecap: butt}</style>
 </defs>
 <g id="figure_1">
  <g id="patch_1">
   <path d="M 0 432 
L 522.507819 432 
L 522.507819 0 
L 0 0 
L 0 432 
z
" style="fill: none"/>
  </g>
  <g id="axes_1">
   <g id="PatchCollection_1">
    <path d="M 93.244141 222.682409 
L 130.212239 227.629622 
L 158.7025 251.700771 
L 121.734402 246.753557 
z
" clip-path="url(#pf34a1e70c3)" style="fill: #8dd3c7"/>
    <path d="M 121.734402 246.753557 
L 158.7025 251.700771 
L 187.192761 275.77192 
L 150.224663 270.824706 
z
" clip-path="url(#pf34a1e70c3)" style="fill: #8dd3c7"/>
    <path d="M 130.212239 227.629622 
L 167.180337 232.576836 
L 195.670598 256.647985 
L 158.7025 251.700771 
z
" clip-path="url(#pf34a1e70c3)" style="fill: #8dd3c7"/>
    <path d="M 93.244141 222.682409 
L 130.212239 227.629622 
L 148.758765 195.270055 
L 111.790667 190.322842 
z
" clip-path="url(#pf34a1e70c3)" style="fill: #b3de69"/>
    <path d="M 158.7025 251.700771 
L 195.670598 256.647985 
L 224.160859 280.719134 
L 187.192761 275.77192 
z
" clip-path="url(#pf34a1e70c3)" style="fill: #8dd3c7"/>
    <path d="M 130.212239 227.629622 
L 167.180337 232.576836 
L 185.726862 200.217269 
L 148.758765 195.270055 
z
" clip-path="url(#pf34a1e70c3)" style="fill: #b3de69"/>
    <path d="M 167.180337 232.576836 
L 195.670598 256.647985 
L 214.217123 224.288418 
L 185.726862 200.217269 
z
" clip-path="url(#pf34a1e70c3)" style="fill: #ffed6f"/>
    <path d="M 111.790667 190.322842 
L 148.758765 195.270055 
L 167.30529 162.910489 
L 130.337192 157.963275 
z
" clip-path="url(#pf34a1e70c3)" style="fill: #b3de69"/>
    <path d="M 195.670598 256.647985 
L 224.160859 280.719134 
L 242.707384 248.359567 
L 214.217123 224.288418 
z
" clip-path="url(#pf34a1e70c3)" style="fill: #ffed6f"/>
    <path d="M 187.192761 275.77192 
L 224.160859 280.719134 
L 252.651119 304.790283 
L 215.683022 299.843069 
z
" clip-path="url(#pf34a1e70c3)" style="fill: #8dd3c7"/>
    <path d="M 148.758765 195.270055 
L 185.726862 200.217269 
L 204.273388 167.857702 
L 167.30529 162.910489 
z
" clip-path="url(#pf34a1e70c3)" style="fill: #b3de69"/>
    <path d="M 185.726862 200.217269 
L 214.217123 224.288418 
L 232.763649 191.928851 
L 204.273388 167.857702 
z
" clip-path="url(#pf34a1e70c3)" style="fill: #ffed6f"/>
    <path d="M 130.337192 157.963275 
L 167.30529 162.910489 
L 185.851816 130.550922 
L 148.883718 125.603708 
z
" clip-path="url(#pf34a1e70c3)" style="fill: #b3de69"/>
    <path d="M 224.160859 280.719134 
L 261.128956 285.666347 
L 279.675482 253.306781 
L 242.707384 248.359567 
z
" clip-path="url(#pf34a1e70c3)" style="fill: #b3de69"/>
    <path d="M 214.217123 224.288418 
L 251.185221 229.235632 
L 279.675482 253.306781 
L 242.707384 248.359567 
z
" clip-path="url(#pf34a1e70c3)" style="fill: #8dd3c7"/>
    <path d="M 224.160859 280.719134 
L 261.128956 285.666347 
L 289.619217 309.737496 
L 252.651119 304.790283 
z
" clip-path="url(#pf34a1e70c3)" style="fill: #8dd3c7"/>
    <path d="M 215.683022 299.843069 
L 252.651119 304.790283 
L 281.14138 328.861432 
L 244.173283 323.914218 
z
" clip-path="url(#pf34a1e70c3)" style="fill: #8dd3c7"/>
    <path d="M 167.30529 162.910489 
L 204.273388 167.857702 
L 222.819913 135.498135 
L 185.851816 130.550922 
z
" clip-path="url(#pf34a1e70c3)" style="fill: #b3de69"/>
    <path d="M 204.273388 167.857702 
L 232.763649 191.928851 
L 251.310174 159.569284 
L 222.819913 135.498135 
z
" clip-path="url(#pf34a1e70c3)" style="fill: #ffed6f"/>
    <path d="M 214.217123 224.288418 
L 251.185221 229.235632 
L 269.731747 196.876065 
L 232.763649 191.928851 
z
" clip-path="url(#pf34a1e70c3)" style="fill: #b3de69"/>
    <path d="M 148.883718 125.603708 
L 185.851816 130.550922 
L 204.398341 98.191355 
L 167.430243 93.244141 
z
" clip-path="url(#pf34a1e70c3)" style="fill: #b3de69"/>
    <path d="M 261.128956 285.666347 
L 289.619217 309.737496 
L 308.165743 277.377929 
L 279.675482 253.306781 
z
" clip-path="url(#pf34a1e70c3)" style="fill: #ffed6f"/>
    <path d="M 251.185221 229.235632 
L 279.675482 253.306781 
L 298.222008 220.947214 
L 269.731747 196.876065 
z
" clip-path="url(#pf34a1e70c3)" style="fill: #ffed6f"/>
    <path d="M 252.651119 304.790283 
L 289.619217 309.737496 
L 318.109478 333.808645 
L 281.14138 328.861432 
z
" clip-path="url(#pf34a1e70c3)" style="fill: #8dd3c7"/>
    <path d="M 185.851816 130.550922 
L 222.819913 135.498135 
L 241.366439 103.138568 
L 204.398341 98.191355 
z
" clip-path="url(#pf34a1e70c3)" style="fill: #b3de69"/>
    <path d="M 232.763649 191.928851 
L 269.731747 196.876065 
L 288.278272 164.516498 
L 251.310174 159.569284 
z
" clip-path="url(#pf34a1e70c3)" style="fill: #b3de69"/>
    <path d="M 222.819913 135.498135 
L 259.788011 140.445349 
L 288.278272 164.516498 
L 251.310174 159.569284 
z
" clip-path="url(#pf34a1e70c3)" style="fill: #8dd3c7"/>
    <path d="M 289.619217 309.737496 
L 326.587315 314.68471 
L 345.133841 282.325143 
L 308.165743 277.377929 
z
" clip-path="url(#pf34a1e70c3)" style="fill: #b3de69"/>
    <path d="M 279.675482 253.306781 
L 316.64358 258.253994 
L 345.133841 282.325143 
L 308.165743 277.377929 
z
" clip-path="url(#pf34a1e70c3)" style="fill: #8dd3c7"/>
    <path d="M 279.675482 253.306781 
L 316.64358 258.253994 
L 335.190105 225.894427 
L 298.222008 220.947214 
z
" clip-path="url(#pf34a1e70c3)" style="fill: #b3de69"/>
    <path d="M 269.731747 196.876065 
L 298.222008 220.947214 
L 316.768533 188.587647 
L 288.278272 164.516498 
z
" clip-path="url(#pf34a1e70c3)" style="fill: #ffed6f"/>
    <path d="M 289.619217 309.737496 
L 326.587315 314.68471 
L 355.077576 338.755859 
L 318.109478 333.808645 
z
" clip-path="url(#pf34a1e70c3)" style="fill: #8dd3c7"/>
    <path d="M 222.819913 135.498135 
L 259.788011 140.445349 
L 278.334537 108.085782 
L 241.366439 103.138568 
z
" clip-path="url(#pf34a1e70c3)" style="fill: #b3de69"/>
    <path d="M 259.788011 140.445349 
L 288.278272 164.516498 
L 306.824798 132.156931 
L 278.334537 108.085782 
z
" clip-path="url(#pf34a1e70c3)" style="fill: #ffed6f"/>
    <path d="M 326.587315 314.68471 
L 355.077576 338.755859 
L 373.624102 306.396292 
L 345.133841 282.325143 
z
" clip-path="url(#pf34a1e70c3)" style="fill: #ffed6f"/>
    <path d="M 316.64358 258.253994 
L 345.133841 282.325143 
L 363.680366 249.965576 
L 335.190105 225.894427 
z
" clip-path="url(#pf34a1e70c3)" style="fill: #ffed6f"/>
    <path d="M 298.222008 220.947214 
L 335.190105 225.894427 
L 353.736631 193.53486 
L 316.768533 188.587647 
z
" clip-path="url(#pf34a1e70c3)" style="fill: #b3de69"/>
    <path d="M 288.278272 164.516498 
L 316.768533 188.587647 
L 335.315059 156.22808 
L 306.824798 132.156931 
z
" clip-path="url(#pf34a1e70c3)" style="fill: #ffed6f"/>
    <path d="M 278.334537 108.085782 
L 315.302635 113.032996 
L 343.792896 137.104145 
L 306.824798 132.156931 
z
" clip-path="url(#pf34a1e70c3)" style="fill: #8dd3c7"/>
    <path d="M 345.133841 282.325143 
L 373.624102 306.396292 
L 392.170627 274.036725 
L 363.680366 249.965576 
z
" clip-path="url(#pf34a1e70c3)" style="fill: #ffed6f"/>
    <path d="M 335.190105 225.894427 
L 363.680366 249.965576 
L 382.226892 217.606009 
L 353.736631 193.53486 
z
" clip-path="url(#pf34a1e70c3)" style="fill: #ffed6f"/>
    <path d="M 316.768533 188.587647 
L 353.736631 193.53486 
L 372.283156 161.175294 
L 335.315059 156.22808 
z
" clip-path="url(#pf34a1e70c3)" style="fill: #b3de69"/>
    <path d="M 306.824798 132.156931 
L 343.792896 137.104145 
L 372.283156 161.175294 
L 335.315059 156.22808 
z
" clip-path="url(#pf34a1e70c3)" style="fill: #8dd3c7"/>
    <path d="M 363.680366 249.965576 
L 392.170627 274.036725 
L 410.717153 241.677158 
L 382.226892 217.606009 
z
" clip-path="url(#pf34a1e70c3)" style="fill: #ffed6f"/>
    <path d="M 353.736631 193.53486 
L 382.226892 217.606009 
L 400.773417 185.246443 
L 372.283156 161.175294 
z
" clip-path="url(#pf34a1e70c3)" style="fill: #ffed6f"/>
    <path d="M 382.226892 217.606009 
L 410.717153 241.677158 
L 429.263678 209.317591 
L 400.773417 185.246443 
z
" clip-path="url(#pf34a1e70c3)" style="fill: #ffed6f"/>
   </g>
   <g id="PatchCollection_2">
    <path d="M 93.244141 222.682409 
L 130.212239 227.629622 
L 158.7025 251.700771 
L 121.734402 246.753557 
L 93.244141 222.682409 
z
" clip-path="url(#pf34a1e70c3)" style="fill: none; stroke: #000000; stroke-width: 0.8"/>
    <path d="M 121.734402 246.753557 
L 158.7025 251.700771 
L 187.192761 275.77192 
L 150.224663 270.824706 
L 121.734402 246.753557 
z
" clip-path="url(#pf34a1e70c3)" style="fill: none; stroke: #000000; stroke-width: 0.8"/>
    <path d="M 130.212239 227.629622 
L 167.180337 232.576836 
L 195.670598 256.647985 
L 158.7025 251.700771 
L 130.212239 227.629622 
z
" clip-path="url(#pf34a1e70c3)" style="fill: none; stroke: #000000; stroke-width: 0.8"/>
    <path d="M 93.244141 222.682409 
L 130.212239 227.629622 
L 148.758765 195.270055 
L 111.790667 190.322842 
L 93.244141 222.682409 
z
" clip-path="url(#pf34a1e70c3)" style="fill: none; stroke: #000000; stroke-width: 0.8"/>
    <path d="M 158.7025 251.700771 
L 195.670598 256.647985 
L 224.160859 280.719134 
L 187.192761 275.77192 
L 158.7025 251.700771 
z
" clip-path="url(#pf34a1e70c3)" style="fill: none; stroke: #000000; stroke-width: 0.8"/>
    <path d="M 130.212239 227.629622 
L 167.180337 232.576836 
L 185.726862 200.217269 
L 148.758765 195.270055 
L 130.212239 227.629622 
z
" clip-path="url(#pf34a1e70c3)" style="fill: none; stroke: #000000; stroke-width: 0.8"/>
    <path d="M 167.180337 232.576836 
L 195.670598 256.647985 
L 214.217123 224.288418 
L 185.726862 200.217269 
L 167.180337 232.576836 
z
" clip-path="url(#pf34a1e70c3)" style="fill: none; stroke: #000000; stroke-width: 0.8"/>
    <path d="M 111.790667 190.322842 
L 148.758765 195.270055 
L 167.30529 162.910489 
L 130.337192 157.963275 
L 111.790667 190.322842 
z
" clip-path="url(#pf34a1e70c3)" style="fill: none; stroke: #000000; stroke-width: 0.8"/>
    <path d="M 195.670598 256.647985 
L 224.160859 280.719134 
L 242.707384 248.359567 
L 214.217123 224.288418 
L 195.670598 256.647985 
z
" clip-path="url(#pf34a1e70c3)" style="fill: none; stroke: #000000; stroke-width: 0.8"/>
    <path d="M 187.192761 275.77192 
L 224.160859 280.719134 
L 252.651119 304.790283 
L 215.683022 299.843069 
L 187.192761 275.77192 
z
" clip-path="url(#pf34a1e70c3)" style="fill: none; stroke: #000000; stroke-width: 0.8"/>
    <path d="M 148.758765 195.270055 
L 185.726862 200.217269 
L 204.273388 167.857702 
L 167.30529 162.910489 
L 148.758765 195.270055 
z
" clip-path="url(#pf34a1e70c3)" style="fill: none; stroke: #000000; stroke-width: 0.8"/>
    <path d="M 185.726862 200.217269 
L 214.217123 224.288418 
L 232.763649 191.928851 
L 204.273388 167.857702 
L 185.726862 200.217269 
z
" clip-path="url(#pf34a1e70c3)" style="fill: none; stroke: #000000; stroke-width: 0.8"/>
    <path d="M 130.337192 157.963275 
L 167.30529 162.910489 
L 185.851816 130.550922 
L 148.883718 125.603708 
L 130.337192 157.963275 
z
" clip-path="url(#pf34a1e70c3)" style="fill: none; stroke: #000000; stroke-width: 0.8"/>
    <path d="M 224.160859 280.719134 
L 261.128956 285.666347 
L 279.675482 253.306781 
L 242.707384 248.359567 
L 224.160859 280.719134 
z
" clip-path="url(#pf34a1e70c3)" style="fill: none; stroke: #000000; stroke-width: 0.8"/>
    <path d="M 214.217123 224.288418 
L 251.185221 229.235632 
L 279.675482 253.306781 
L 242.707384 248.359567 
L 214.217123 224.288418 
z
" clip-path="url(#pf34a1e70c3)" style="fill: none; stroke: #000000; stroke-width: 0.8"/>
    <path d="M 224.160859 280.719134 
L 261.128956 285.666347 
L 289.619217 309.737496 
L 252.651119 304.790283 
L 224.160859 280.719134 
z
" clip-path="url(#pf34a1e70c3)" style="fill: none; stroke: #000000; stroke-width: 0.8"/>
    <path d="M 215.683022 299.843069 
L 252.651119 304.790283 
L 281.14138 328.861432 
L 244.173283 323.914218 
L 215.683022 299.843069 
z
" clip-path="url(#pf34a1e70c3)" style="fill: none; stroke: #000000; stroke-width: 0.8"/>
    <path d="M 167.30529 162.910489 
L 204.273388 167.857702 
L 222.819913 135.498135 
L 185.851816 130.550922 
L 167.30529 162.910489 
z
" clip-path="url(#pf34a1e70c3)" style="fill: none; stroke: #000000; stroke-width: 0.8"/>
    <path d="M 204.273388 167.857702 
L 232.763649 191.928851 
L 251.310174 159.569284 
L 222.819913 135.498135 
L 204.273388 167.857702 
z
" clip-path="url(#pf34a1e70c3)" style="fill: none; stroke: #000000; stroke-width: 0.8"/>
    <path d="M 214.217123 224.288418 
L 251.185221 229.235632 
L 269.731747 196.876065 
L 232.763649 191.928851 
L 214.217123 224.288418 
z
" clip-path="url(#pf34a1e70c3)" style="fill: none; stroke: #000000; stroke-width: 0.8"/>
    <path d="M 148.883718 125.603708 
L 185.851816 130.550922 
L 204.398341 98.191355 
L 167.430243 93.244141 
L 148.883718 125.603708 
z
" clip-path="url(#pf34a1e70c3)" style="fill: none; stroke: #000000; stroke-width: 0.8"/>
    <path d="M 261.128956 285.666347 
L 289.619217 309.737496 
L 308.165743 277.377929 
L 279.675482 253.306781 
L 261.128956 285.666347 
z
" clip-path="url(#pf34a1e70c3)" style="fill: none; stroke: #000000; stroke-width: 0.8"/>
    <path d="M 251.185221 229.235632 
L 279.675482 253.306781 
L 298.222008 220.947214 
L 269.731747 196.876065 
L 251.185221 229.235632 
z
" clip-path="url(#pf34a1e70c3)" style="fill: none; stroke: #000000; stroke-width: 0.8"/>
    <path d="M 252.651119 304.790283 
L 289.619217 309.737496 
L 318.109478 333.808645 
L 281.14138 328.861432 
L 252.651119 304.790283 
z
" clip-path="url(#pf34a1e70c3)" style="fill: none; stroke: #000000; stroke-width: 0.8"/>
    <path d="M 185.851816 130.550922 
L 222.819913 135.498135 
L 241.366439 103.138568 
L 204.398341 98.191355 
L 185.851816 130.550922 
z
" clip-path="url(#pf34a1e70c3)" style="fill: none; stroke: #000000; stroke-width: 0.8"/>
    <path d="M 232.763649 191.928851 
L 269.731747 196.876065 
L 288.278272 164.516498 
L 251.310174 159.569284 
L 232.763649 191.928851 
z
" clip-path="url(#pf34a1e70c3)" style="fill: none; stroke: #000000; stroke-width: 0.8"/>
    <path d="M 222.819913 135.498135 
L 259.788011 140.445349 
L 288.278272 164.516498 
L 251.310174 159.569284 
L 222.819913 135.498135 
z
" clip-path="url(#pf34a1e70c3)" style="fill: none; stroke: #000000; stroke-width: 0.8"/>
    <path d="M 289.619217 309.737496 
L 326.587315 314.68471 
L 345.133841 282.325143 
L 308.165743 277.377929 
L 289.619217 309.737496 
z
" clip-path="url(#pf34a1e70c3)" style="fill: none; stroke: #000000; stroke-width: 0.8"/>
    <path d="M 279.675482 253.306781 
L 316.64358 258.253994 
L 345.133841 282.325143 
L 308.165743 277.377929 
L 279.675482 253.306781 
z
" clip-path="url(#pf34a1e70c3)" style="fill: none; stroke: #000000; stroke-width: 0.8"/>
    <path d="M 279.675482 253.306781 
L 316.64358 258.253994 
L 335.190105 225.894427 
L 298.222008 220.947214 
L 279.675482 253.306781 
z
" clip-path="url(#pf34a1e70c3)" style="fill: none; stroke: #000000; stroke-width: 0.8"/>
    <path d="M 269.731747 196.876065 
L 298.222008 220.947214 
L 316.768533 188.587647 
L 288.278272 164.516498 
L 269.731747 196.876065 
z
" clip-path="url(#pf34a1e70c3)" style="fill: none; stroke: #000000; stroke-width: 0.8"/>
    <path d="M 289.619217 309.737496 
L 326.587315 314.68471 
L 355.077576 338.755859 
L 318.109478 333.808645 
L 289.619217 309.737496 
z
" clip-path="url(#pf34a1e70c3)" style="fill: none; stroke: #000000; stroke-width: 0.8"/>
    <path d="M 222.819913 135.498135 
L 259.788011 140.445349 
L 278.334537 108.085782 
L 241.366439 103.138568 
L 222.819913 135.498135 
z
" clip-path="url(#pf34a1e70c3)" style="fill: none; stroke: #000000; stroke-width: 0.8"/>
    <path d="M 259.788011 140.445349 
L 288.278272 164.516498 
L 306.824798 132.156931 
L 278.334537 108.085782 
L 259.788011 140.445349 
z
" clip-path="url(#pf34a1e70c3)" style="fill: none; stroke: #000000; stroke-width: 0.8"/>
    <path d="M 326.587315 314.68471 
L 355.077576 338.755859 
L 373.624102 306.396292 
L 345.133841 282.325143 
L 326.587315 314.68471 
z
" clip-path="url(#pf34a1e70c3)" style="fill: none; stroke: #000000; stroke-width: 0.8"/>
    <path d="M 316.64358 258.253994 
L 345.133841 282.325143 
L 363.680366 249.965576 
L 335.190105 225.894427 
L 316.64358 258.253994 
z
" clip-path="url(#pf34a1e70c3)" style="fill: none; stroke: #000000; stroke-width: 0.8"/>
    <path d="M 298.222008 220.947214 
L 335.190105 225.894427 
L 353.736631 193.53486 
L 316.768533 188.587647 
L 298.222008 220.947214 
z
" clip-path="url(#pf34a1e70c3)" style="fill: none; stroke: #000000; stroke-width: 0.8"/>
    <path d="M 288.278272 164.516498 
L 316.768533 188.587647 
L 335.315059 156.22808 
L 306.824798 132.156931 
L 288.278272 164.516498 
z
" clip-path="url(#pf34a1e70c3)" style="fill: none; stroke: #000000; stroke-width: 0.8"/>
    <path d="M 278.334537 108.085782 
L 315.302635 113.032996 
L 343.792896 137.104145 
L 306.824798 132.156931 
L 278.334537 108.085782 
z
" clip-path="url(#pf34a1e70c3)" style="fill: none; stroke: #000000; stroke-width: 0.8"/>
    <path d="M 345.133841 282.325143 
L 373.624102 306.396292 
L 392.170627 274.036725 
L 363.680366 249.965576 
L 345.133841 282.325143 
z
" clip-path="url(#pf34a1e70c3)" style="fill: none; stroke: #000000; stroke-width: 0.8"/>
    <path d="M 335.190105 225.894427 
L 363.680366 249.965576 
L 382.226892 217.606009 
L 353.736631 193.53486 
L 335.190105 225.894427 
z
" clip-path="url(#pf34a1e70c3)" style="fill: none; stroke: #000000; stroke-width: 0.8"/>
    <path d="M 316.768533 188.587647 
L 353.736631 193.53486 
L 372.283156 161.175294 
L 335.315059 156.22808 
L 316.768533 188.587647 
z
" clip-path="url(#pf34a1e70c3)" style="fill: none; stroke: #000000; stroke-width: 0.8"/>
    <path d="M 306.824798 132.156931 
L 343.792896 137.104145 
L 372.283156 161.175294 
L 335.315059 156.22808 
L 306.824798 132.156931 
z
" clip-path="url(#pf34a1e70c3)" style="fill: none; stroke: #000000; stroke-width: 0.8"/>
    <path d="M 363.680366 249.965576 
L 392.170627 274.036725 
L 410.717153 241.677158 
L 382.226892 217.606009 
L 363.680366 249.965576 
z
" clip-path="url(#pf34a1e70c3)" style="fill: none; stroke: #000000; stroke-width: 0.8"/>
    <path d="M 353.736631 193.53486 
L 382.226892 217.606009 
L 400.773417 185.246443 
L 372.283156 161.175294 
L 353.736631 193.53486 
z
" clip-path="url(#pf34a1e70c3)" style="fill: none; stroke: #000000; stroke-width: 0.8"/>
    <path d="M 382.226892 217.606009 
L 410.717153 241.677158 
L 429.263678 209.317591 
L 400.773417 185.246443 
L 382.226892 217.606009 
z
" clip-path="url(#pf34a1e70c3)" style="fill: none; stroke: #000000; stroke-width: 0.8"/>
   </g>
  </g>
 </g>
 <defs>
  <clipPath id="pf34a1e70c3">
   <rect x="0" y="0" width="522.507819" height="432"/>
  </clipPath>
 </defs>
</svg>
